:SAMPLES-PER-SECOND 24
:FULLY-SPECIFIED
:DEGREES
110
root  -1.95517 41.0659 22.5899 7.09901 -47.1392 1.27924
RightUpLeg  -6.07978 6.67914 -4.04415
RightLeg  17.2208 -0.273088 -0.797959
RightFoot  -6.69167 -0.275992 5.44231
RightToes  -2.08645e-008 3.77894e-005 6.81332e-007
Spine  -6.95005 0.428218 0.697421
Spine1  11.1692 -0.203741 2.06939
HEad  -32.3357 36.3845 -17.2323
LeftShoulder1  6.9094 -12.652 -36.7079
LeftArm  -0.340108 28.7307 -33.4937
LeftForeArm  165.595 -71.1107 -151.166
LeftHand  -0.512043 -2.51897 7.72994
RightShoulder  4.06298 6.66153 34.0797
RightArm  7.98769 -33.8505 28.8256
RightForeArm  141.113 76.3856 134.643
RightHand  -0.620007 7.13921 -6.08852
LeftUpLeg  -15.4809 7.60821 12.459
LeftLeg  15.6422 9.49712 3.23918
LeftFoot  17.8113 3.78144 -14.8677
LeftToes  1.24767e-006 1.47042e-008 1.32732e-009
111
root  -1.89509 41.9186 22.8313 7.19926 -49.2407 2.29988
RightUpLeg  -6.63607 5.02103 -5.56337
RightLeg  14.6649 2.76269 -0.73821
RightFoot  -0.622553 -0.633238 6.72205
RightToes  -2.08645e-008 3.77894e-005 6.81332e-007
Spine  -7.79271 1.35864 0.333626
Spine1  10.2062 1.02839 1.21322
HEad  -29.844 36.9228 -15.738
LeftShoulder1  6.69045 -12.4556 -35.8836
LeftArm  0.680373 33.6976 -33.7655
LeftForeArm  163.941 -70.3745 -152.048
LeftHand  -0.447746 -2.62695 6.70447
RightShoulder  4.16962 6.86005 34.3399
RightArm  11.3149 -36.5014 25.6568
RightForeArm  144.99 75.3712 138.656
RightHand  -0.24777 7.2514 -2.61668
LeftUpLeg  -14.5004 11.263 11.1804
LeftLeg  12.3041 8.00367 1.44592
LeftFoot  20.5941 4.33644 -15.5288
LeftToes  1.24767e-006 1.47042e-008 1.32732e-009
112
root  -1.79268 42.1174 23.0097 6.30965 -49.9845 3.29237
RightUpLeg  -6.90162 6.28299 -6.53217
RightLeg  15.549 -1.43595 -1.60206
RightFoot  -0.226385 -0.619659 6.34549
RightToes  -2.08645e-008 3.77894e-005 6.81332e-007
Spine  -7.98296 1.38573 -0.195105
Spine1  10.1915 1.28462 0.529333
HEad  -29.772 37.4372 -15.4984
LeftShoulder1  6.45603 -12.2557 -34.9476
LeftArm  1.67034 36.1265 -32.167
LeftForeArm  164.406 -68.7563 -154.299
LeftHand  -0.447078 -2.51591 6.78103
RightShoulder  4.15657 6.90884 34.0284
RightArm  14.8517 -35.4994 23.1976
RightForeArm  146.674 74.7747 140.636
RightHand  -0.079209 7.60738 -1.07431
LeftUpLeg  -13.8757 9.66503 10.4014
LeftLeg  11.9584 7.26695 1.28047
LeftFoot  21.1702 4.42493 -15.5536
LeftToes  1.24767e-006 1.47042e-008 1.32732e-009
113
root  -1.6012 41.6802 23.2031 5.77609 -49.3662 3.08124
RightUpLeg  -6.32765 7.21495 -6.76059
RightLeg  17.4632 -3.91885 -1.7586
RightFoot  -3.39974 -0.470407 6.46179
RightToes  -2.08645e-008 3.77894e-005 6.81332e-007
Spine  -8.07157 1.09375 0.743815
Spine1  11.1795 1.09283 -0.316271
HEad  -30.2161 37.0812 -16.4427
LeftShoulder1  6.37321 -12.2059 -34.556
LeftArm  1.946 35.5634 -29.619
LeftForeArm  165.853 -67.7046 -155.744
LeftHand  -0.416421 -2.12157 6.6328
RightShoulder  3.89814 6.64165 32.5368
RightArm  15.7794 -32.8427 22.7783
RightForeArm  148.264 74.56 141.492
RightHand  -0.0676011 8.20837 -0.955013
LeftUpLeg  -13.8065 6.49725 10.2731
LeftLeg  14.1391 7.4489 2.40299
LeftFoot  19.3832 4.48056 -16.681
LeftToes  1.24767e-006 1.47042e-008 1.32732e-009
114
root  -1.41356 40.6285 23.3596 5.07257 -49.5776 2.92209
RightUpLeg  -5.42744 8.66195 -7.04434
RightLeg  19.3093 -3.09283 -1.38686
RightFoot  -9.97702 -0.14311 6.04384
RightToes  -2.08645e-008 3.77894e-005 6.81332e-007
Spine  -7.35822 1.3039 1.22154
Spine1  11.1556 1.27222 -0.54357
HEad  -30.1031 36.591 -17.4625
LeftShoulder1  6.3389 -12.1263 -34.5443
LeftArm  0.720483 33.136 -27.3192
LeftForeArm  164.283 -68.2282 -154.944
LeftHand  -0.418586 -1.91956 6.83657
RightShoulder  3.75176 6.47816 31.6982
RightArm  15.5254 -29.2459 21.7178
RightForeArm  147.244 74.7448 140.886
RightHand  -0.171889 7.88953 -1.87127
LeftUpLeg  -13.2916 4.23898 10.4956
LeftLeg  17.828 7.49139 3.06375
LeftFoot  10.2261 3.65934 -19.5116
LeftToes  1.24767e-006 1.47042e-008 1.32732e-009
115
root  -1.26278 39.2546 23.3487 4.34428 -51.1928 3.11334
RightUpLeg  -6.3072 11.249 -7.04877
RightLeg  23.4026 -4.28393 -2.24789
RightFoot  -19.1831 0.170089 4.46078
RightToes  -2.08645e-008 3.77894e-005 6.81332e-007
Spine  -6.55208 2.10169 0.938077
Spine1  11.3024 2.04974 -0.488111
HEad  -31.5104 36.5466 -19.2297
LeftShoulder1  6.52779 -12.217 -35.4945
LeftArm  -1.89082 28.4213 -24.6147
LeftForeArm  160.895 -70.4803 -151.479
LeftHand  -0.537073 -1.70113 8.96468
RightShoulder  3.81654 6.51325 32.2147
RightArm  14.355 -23.1134 21.4033
RightForeArm  137.05 77.0809 131.132
RightHand  -0.446964 7.40509 -4.40794
LeftUpLeg  -13.3215 5.82616 10.4563
LeftLeg  22.413 5.97717 3.0278
LeftFoot  -2.42663 1.54973 -19.381
LeftToes  1.24767e-006 1.47042e-008 1.32732e-009
116
root  -1.07174 38.2166 23.1757 2.63448 -52.3771 3.75113
RightUpLeg  -7.9543 12.7123 -6.84011
RightLeg  29.4161 -6.39951 -4.12008
RightFoot  -25.6837 0.247554 3.35188
RightToes  -2.08645e-008 3.77894e-005 6.81332e-007
Spine  -4.40936 2.55508 1.60752
Spine1  12.1846 3.00958 -2.3074
HEad  -35.6333 36.3573 -22.0299
LeftShoulder1  6.63803 -12.2673 -36.0495
LeftArm  -6.41643 22.7989 -23.4142
LeftForeArm  158.475 -73.7995 -145.108
LeftHand  -0.640413 -1.21981 11.3969
RightShoulder  3.93913 6.61031 33.0625
RightArm  11.5723 -15.5271 24.6824
RightForeArm  113.871 79.8448 106.447
RightHand  -0.600454 6.93653 -5.99248
LeftUpLeg  -13.9782 7.9015 10.0327
LeftLeg  27.1735 5.75983 3.55042
LeftFoot  -9.62737 0.316058 -17.1866
LeftToes  1.24767e-006 1.47042e-008 1.32732e-009
117
root  -0.912728 37.9035 23.0989 2.32291 -51.6036 3.37527
RightUpLeg  -8.38021 12.0855 -6.41114
RightLeg  31.7269 -6.78083 -4.73752
RightFoot  -26.9399 0.255529 3.19752
RightToes  -2.08645e-008 3.77894e-005 6.81332e-007
Spine  -2.12707 2.40482 3.18129
Spine1  11.8954 3.38287 -4.27475
HEad  -39.1719 35.5015 -24.3637
LeftShoulder1  6.81393 -12.4725 -36.5952
LeftArm  -11.1505 20.7476 -24.6111
LeftForeArm  155.654 -75.7745 -139.683
LeftHand  -0.671728 -0.838473 12.6456
RightShoulder  4.05684 6.74656 33.6913
RightArm  9.69094 -11.1606 28.7065
RightForeArm  103.121 80.2858 94.41
RightHand  -0.489265 6.84446 -4.98085
LeftUpLeg  -15.8934 6.99613 10.0905
LeftLeg  31.1672 6.32268 4.4674
LeftFoot  -10.3829 0.206695 -17.0147
LeftToes  1.24767e-006 1.47042e-008 1.32732e-009
118
root  -0.890425 38.262 23.3619 4.82872 -48.6955 1.93681
RightUpLeg  -7.30088 9.21029 -6.016
RightLeg  27.7319 -6.27066 -3.80022
RightFoot  -24.9323 0.316396 4.07896
RightToes  -2.08645e-008 3.77894e-005 6.81332e-007
Spine  -2.61052 1.97809 5.09327
Spine1  10.5611 3.09519 -5.25564
HEad  -39.3513 34.7388 -24.6127
LeftShoulder1  6.81435 -12.4964 -36.5353
LeftArm  -13.1111 23.5932 -28.5024
LeftForeArm  154.99 -75.1768 -141.156
LeftHand  -0.652551 -0.407745 13.1629
RightShoulder  4.03889 6.73644 33.5549
RightArm  11.1651 -11.2213 31.9645
RightForeArm  114.468 79.9299 105.759
RightHand  -0.725817 6.81514 -7.23006
LeftUpLeg  -19.3188 4.44689 10.3915
LeftLeg  33.0422 6.61798 4.97637
LeftFoot  -6.92647 0.631529 -15.4656
LeftToes  1.24767e-006 1.47042e-008 1.32732e-009
119
root  -0.954445 39.0104 23.8849 7.75829 -45.4735 1.09344
RightUpLeg  -5.78509 5.99199 -5.96401
RightLeg  21.3843 -6.38474 -2.9186
RightFoot  -20.2011 0.275355 5.31389
RightToes  -2.08645e-008 3.77894e-005 6.81332e-007
Spine  -4.84472 2.42188 5.64316
Spine1  9.0969 3.28015 -4.77265
HEad  -37.0615 33.797 -23.3323
LeftShoulder1  6.86742 -12.567 -36.674
LeftArm  -11.5838 28.3127 -31.5154
LeftForeArm  157.159 -73.727 -145.04
LeftHand  -0.619794 -0.55523 12.2073
RightShoulder  3.95818 6.62778 33.183
RightArm  14.6149 -12.9326 33.4709
RightForeArm  126.366 79.1419 117.334
RightHand  -0.791968 7.12778 -7.67964
LeftUpLeg  -22.1993 4.98469 9.38212
LeftLeg  31.4818 7.20923 5.09076
LeftFoot  -2.73533 0.912954 -11.9562
LeftToes  1.24767e-006 1.47042e-008 1.32732e-009
